<mxfile host="app.diagrams.net" agent="Mozilla/5.0 (Windows NT 10.0; Win64; x64) AppleWebKit/537.36 (KHTML, like Gecko) Chrome/133.0.0.0 Safari/537.36" version="26.0.16">
  <diagram id="Ht1M8jgEwFfnCIfOTk4-" name="Page-1">
    <mxGraphModel dx="2311" dy="803" grid="1" gridSize="10" guides="1" tooltips="1" connect="1" arrows="1" fold="1" page="1" pageScale="1" pageWidth="1169" pageHeight="827" math="0" shadow="0">
      <root>
        <mxCell id="0" />
        <mxCell id="1" parent="0" />
        <mxCell id="fuwTm4U0xm-plLAGryb_-12" value="Public subnet" style="points=[[0,0],[0.25,0],[0.5,0],[0.75,0],[1,0],[1,0.25],[1,0.5],[1,0.75],[1,1],[0.75,1],[0.5,1],[0.25,1],[0,1],[0,0.75],[0,0.5],[0,0.25]];outlineConnect=0;gradientColor=none;html=1;whiteSpace=wrap;fontSize=12;fontStyle=0;container=1;pointerEvents=0;collapsible=0;recursiveResize=0;shape=mxgraph.aws4.group;grIcon=mxgraph.aws4.group_security_group;grStroke=0;strokeColor=#7AA116;fillColor=#F2F6E8;verticalAlign=top;align=left;spacingLeft=30;fontColor=#248814;dashed=0;" parent="1" vertex="1">
          <mxGeometry x="160" y="221.5" width="490" height="298.5" as="geometry" />
        </mxCell>
        <mxCell id="JzPm0LA4FIclO9d2p8x0-24" value="AWS WAF&lt;div&gt;&lt;br&gt;&lt;/div&gt;" style="sketch=0;points=[[0,0,0],[0.25,0,0],[0.5,0,0],[0.75,0,0],[1,0,0],[0,1,0],[0.25,1,0],[0.5,1,0],[0.75,1,0],[1,1,0],[0,0.25,0],[0,0.5,0],[0,0.75,0],[1,0.25,0],[1,0.5,0],[1,0.75,0]];outlineConnect=0;fontColor=#232F3E;fillColor=#DD344C;strokeColor=#ffffff;dashed=0;verticalLabelPosition=bottom;verticalAlign=top;align=center;html=1;fontSize=12;fontStyle=0;aspect=fixed;shape=mxgraph.aws4.resourceIcon;resIcon=mxgraph.aws4.waf;" parent="fuwTm4U0xm-plLAGryb_-12" vertex="1">
          <mxGeometry x="420" y="8.500000000000004" width="51.88" height="51.88" as="geometry" />
        </mxCell>
        <mxCell id="JzPm0LA4FIclO9d2p8x0-30" value="&lt;font style=&quot;font-size: 9px;&quot;&gt;AWS&lt;br&gt;CERTIFICATE MANAGER&lt;/font&gt;" style="outlineConnect=0;dashed=0;verticalLabelPosition=bottom;verticalAlign=top;align=center;html=1;shape=mxgraph.aws3.certificate_manager_2;fillColor=#759C3E;gradientColor=none;" parent="fuwTm4U0xm-plLAGryb_-12" vertex="1">
          <mxGeometry x="340" y="7.380000000000001" width="67.5" height="53" as="geometry" />
        </mxCell>
        <mxCell id="DIDE_00u7-2ciem5ur7h-13" value="CLOUD INFRAESTRUCTURE" style="text;html=1;align=center;verticalAlign=middle;whiteSpace=wrap;rounded=0;" parent="fuwTm4U0xm-plLAGryb_-12" vertex="1">
          <mxGeometry x="200" y="258.5" width="180" height="30" as="geometry" />
        </mxCell>
        <mxCell id="qzDV-_mYsomiyrsQQivL-4" value="2" style="rounded=1;whiteSpace=wrap;html=1;fillColor=#007CBD;strokeColor=none;fontColor=#FFFFFF;fontStyle=1;fontSize=22;labelBackgroundColor=none;" vertex="1" parent="fuwTm4U0xm-plLAGryb_-12">
          <mxGeometry x="20" y="78.5" width="40" height="38" as="geometry" />
        </mxCell>
        <mxCell id="fuwTm4U0xm-plLAGryb_-10" value="Private subnet" style="points=[[0,0],[0.25,0],[0.5,0],[0.75,0],[1,0],[1,0.25],[1,0.5],[1,0.75],[1,1],[0.75,1],[0.5,1],[0.25,1],[0,1],[0,0.75],[0,0.5],[0,0.25]];outlineConnect=0;gradientColor=none;html=1;whiteSpace=wrap;fontSize=12;fontStyle=0;container=1;pointerEvents=0;collapsible=0;recursiveResize=0;shape=mxgraph.aws4.group;grIcon=mxgraph.aws4.group_security_group;grStroke=0;strokeColor=#00A4A6;fillColor=#E6F6F7;verticalAlign=top;align=left;spacingLeft=30;fontColor=#147EBA;dashed=0;" parent="1" vertex="1">
          <mxGeometry x="663.02" y="170" width="436.98" height="510" as="geometry" />
        </mxCell>
        <mxCell id="JzPm0LA4FIclO9d2p8x0-25" value="AWS COGNITO" style="sketch=0;points=[[0,0,0],[0.25,0,0],[0.5,0,0],[0.75,0,0],[1,0,0],[0,1,0],[0.25,1,0],[0.5,1,0],[0.75,1,0],[1,1,0],[0,0.25,0],[0,0.5,0],[0,0.75,0],[1,0.25,0],[1,0.5,0],[1,0.75,0]];outlineConnect=0;fontColor=#232F3E;fillColor=#DD344C;strokeColor=#ffffff;dashed=0;verticalLabelPosition=bottom;verticalAlign=top;align=center;html=1;fontSize=12;fontStyle=0;aspect=fixed;shape=mxgraph.aws4.resourceIcon;resIcon=mxgraph.aws4.cognito;" parent="fuwTm4U0xm-plLAGryb_-10" vertex="1">
          <mxGeometry x="13.980000000000018" y="63.47000000000003" width="54.03" height="54.03" as="geometry" />
        </mxCell>
        <mxCell id="DIDE_00u7-2ciem5ur7h-5" value="" style="swimlane;startSize=0;" parent="fuwTm4U0xm-plLAGryb_-10" vertex="1">
          <mxGeometry x="-188.02" y="41.5" width="288.02" height="128.5" as="geometry">
            <mxRectangle x="-188.02" y="41.5" width="50" height="40" as="alternateBounds" />
          </mxGeometry>
        </mxCell>
        <mxCell id="DIDE_00u7-2ciem5ur7h-7" value="" style="swimlane;startSize=0;" parent="fuwTm4U0xm-plLAGryb_-10" vertex="1">
          <mxGeometry x="196.98" y="5.75" width="223.02" height="500" as="geometry">
            <mxRectangle x="196.98" y="5.75" width="50" height="40" as="alternateBounds" />
          </mxGeometry>
        </mxCell>
        <mxCell id="_54sBhCeqdnGJuMFZjdm-4" value="" style="rounded=1;arcSize=10;dashed=1;strokeColor=#ff0000;fillColor=none;gradientColor=none;dashPattern=8 4;strokeWidth=2;" parent="DIDE_00u7-2ciem5ur7h-7" vertex="1">
          <mxGeometry x="-11.38" y="-6.75" width="241.38" height="506.75" as="geometry" />
        </mxCell>
        <mxCell id="qzDV-_mYsomiyrsQQivL-7" value="5" style="rounded=1;whiteSpace=wrap;html=1;fillColor=#007CBD;strokeColor=none;fontColor=#FFFFFF;fontStyle=1;fontSize=22;labelBackgroundColor=none;" vertex="1" parent="DIDE_00u7-2ciem5ur7h-7">
          <mxGeometry x="133.5" width="30" height="30" as="geometry" />
        </mxCell>
        <mxCell id="qzDV-_mYsomiyrsQQivL-8" value="6" style="rounded=1;whiteSpace=wrap;html=1;fillColor=#007CBD;strokeColor=none;fontColor=#FFFFFF;fontStyle=1;fontSize=22;labelBackgroundColor=none;" vertex="1" parent="DIDE_00u7-2ciem5ur7h-7">
          <mxGeometry x="139.25" y="106.75" width="25" height="28" as="geometry" />
        </mxCell>
        <mxCell id="oLP4DhsIbuqPjCPzQVOx-4" value="AWS LAMBDA&lt;br&gt;&lt;div&gt;GESTIÓN DE PROPIEDADES&lt;/div&gt;" style="sketch=0;points=[[0,0,0],[0.25,0,0],[0.5,0,0],[0.75,0,0],[1,0,0],[0,1,0],[0.25,1,0],[0.5,1,0],[0.75,1,0],[1,1,0],[0,0.25,0],[0,0.5,0],[0,0.75,0],[1,0.25,0],[1,0.5,0],[1,0.75,0]];outlineConnect=0;fontColor=#232F3E;fillColor=#ED7100;strokeColor=#ffffff;dashed=0;verticalLabelPosition=bottom;verticalAlign=top;align=center;html=1;fontSize=12;fontStyle=0;aspect=fixed;shape=mxgraph.aws4.resourceIcon;resIcon=mxgraph.aws4.lambda;" parent="DIDE_00u7-2ciem5ur7h-7" vertex="1">
          <mxGeometry x="70" y="106.75" width="49" height="49" as="geometry" />
        </mxCell>
        <mxCell id="qzDV-_mYsomiyrsQQivL-9" value="7" style="rounded=1;whiteSpace=wrap;html=1;fillColor=#007CBD;strokeColor=none;fontColor=#FFFFFF;fontStyle=1;fontSize=22;labelBackgroundColor=none;" vertex="1" parent="DIDE_00u7-2ciem5ur7h-7">
          <mxGeometry x="140" y="204.25" width="20" height="22" as="geometry" />
        </mxCell>
        <mxCell id="qzDV-_mYsomiyrsQQivL-10" value="8" style="rounded=1;whiteSpace=wrap;html=1;fillColor=#007CBD;strokeColor=none;fontColor=#FFFFFF;fontStyle=1;fontSize=22;labelBackgroundColor=none;" vertex="1" parent="DIDE_00u7-2ciem5ur7h-7">
          <mxGeometry x="140" y="300" width="23.5" height="24.25" as="geometry" />
        </mxCell>
        <mxCell id="qzDV-_mYsomiyrsQQivL-11" value="9" style="rounded=1;whiteSpace=wrap;html=1;fillColor=#007CBD;strokeColor=none;fontColor=#FFFFFF;fontStyle=1;fontSize=22;labelBackgroundColor=none;" vertex="1" parent="DIDE_00u7-2ciem5ur7h-7">
          <mxGeometry x="137.75" y="390" width="21.5" height="24.25" as="geometry" />
        </mxCell>
        <mxCell id="-QjtrjUzRDEMRZ5MF8oH-47" value="LUIS MIGUEL LÓPEZ URIBE - JUAN MANUEL LOAIZA GARCIA" style="text;html=1;resizable=0;points=[];autosize=1;align=left;verticalAlign=top;spacingTop=-4;fontSize=30;fontStyle=1" parent="1" vertex="1">
          <mxGeometry x="58" y="45" width="890" height="40" as="geometry" />
        </mxCell>
        <mxCell id="-QjtrjUzRDEMRZ5MF8oH-48" value="SOLUCIÓN INMOBILIARIA" style="text;html=1;resizable=0;points=[];autosize=1;align=left;verticalAlign=top;spacingTop=-4;fontSize=16" parent="1" vertex="1">
          <mxGeometry x="58" y="95" width="220" height="30" as="geometry" />
        </mxCell>
        <mxCell id="SCVMTBWpLvtzJIhz15lM-1" value="" style="line;strokeWidth=2;html=1;fontSize=14;" parent="1" vertex="1">
          <mxGeometry x="54" y="120" width="1060" height="10" as="geometry" />
        </mxCell>
        <mxCell id="k1J5Uft5zTIaOylSxwT3-1" value="" style="rounded=0;whiteSpace=wrap;html=1;fillColor=#EAEDED;fontSize=22;fontColor=#FFFFFF;strokeColor=none;labelBackgroundColor=none;" parent="1" vertex="1">
          <mxGeometry x="1290" width="539" height="1070" as="geometry" />
        </mxCell>
        <mxCell id="k1J5Uft5zTIaOylSxwT3-2" value="1" style="rounded=1;whiteSpace=wrap;html=1;fillColor=#007CBD;strokeColor=none;fontColor=#FFFFFF;fontStyle=1;fontSize=22;labelBackgroundColor=none;" parent="1" vertex="1">
          <mxGeometry x="1308.5" y="12.5" width="40" height="38" as="geometry" />
        </mxCell>
        <mxCell id="k1J5Uft5zTIaOylSxwT3-3" value="2" style="rounded=1;whiteSpace=wrap;html=1;fillColor=#007CBD;strokeColor=none;fontColor=#FFFFFF;fontStyle=1;fontSize=22;labelBackgroundColor=none;" parent="1" vertex="1">
          <mxGeometry x="1307" y="106" width="40" height="38" as="geometry" />
        </mxCell>
        <mxCell id="k1J5Uft5zTIaOylSxwT3-4" value="3" style="rounded=1;whiteSpace=wrap;html=1;fillColor=#007CBD;strokeColor=none;fontColor=#FFFFFF;fontStyle=1;fontSize=22;labelBackgroundColor=none;" parent="1" vertex="1">
          <mxGeometry x="1307" y="238" width="40" height="38" as="geometry" />
        </mxCell>
        <mxCell id="k1J5Uft5zTIaOylSxwT3-5" value="4" style="rounded=1;whiteSpace=wrap;html=1;fillColor=#007CBD;strokeColor=none;fontColor=#FFFFFF;fontStyle=1;fontSize=22;labelBackgroundColor=none;" parent="1" vertex="1">
          <mxGeometry x="1307" y="362.12" width="40" height="38" as="geometry" />
        </mxCell>
        <mxCell id="k1J5Uft5zTIaOylSxwT3-6" value="5" style="rounded=1;whiteSpace=wrap;html=1;fillColor=#007CBD;strokeColor=none;fontColor=#FFFFFF;fontStyle=1;fontSize=22;labelBackgroundColor=none;" parent="1" vertex="1">
          <mxGeometry x="1307" y="470" width="40" height="38" as="geometry" />
        </mxCell>
        <mxCell id="k1J5Uft5zTIaOylSxwT3-7" value="6" style="rounded=1;whiteSpace=wrap;html=1;fillColor=#007CBD;strokeColor=none;fontColor=#FFFFFF;fontStyle=1;fontSize=22;labelBackgroundColor=none;" parent="1" vertex="1">
          <mxGeometry x="1307" y="568.99" width="40" height="38" as="geometry" />
        </mxCell>
        <mxCell id="k1J5Uft5zTIaOylSxwT3-8" value="7" style="rounded=1;whiteSpace=wrap;html=1;fillColor=#007CBD;strokeColor=none;fontColor=#FFFFFF;fontStyle=1;fontSize=22;labelBackgroundColor=none;" parent="1" vertex="1">
          <mxGeometry x="1309.5" y="642" width="40" height="38" as="geometry" />
        </mxCell>
        <mxCell id="k1J5Uft5zTIaOylSxwT3-9" value="8" style="rounded=1;whiteSpace=wrap;html=1;fillColor=#007CBD;strokeColor=none;fontColor=#FFFFFF;fontStyle=1;fontSize=22;labelBackgroundColor=none;" parent="1" vertex="1">
          <mxGeometry x="1309.5" y="720" width="40" height="38" as="geometry" />
        </mxCell>
        <mxCell id="k1J5Uft5zTIaOylSxwT3-10" value="9" style="rounded=1;whiteSpace=wrap;html=1;fillColor=#007CBD;strokeColor=none;fontColor=#FFFFFF;fontStyle=1;fontSize=22;labelBackgroundColor=none;" parent="1" vertex="1">
          <mxGeometry x="1308.5" y="790" width="40" height="38" as="geometry" />
        </mxCell>
        <mxCell id="k1J5Uft5zTIaOylSxwT3-11" value="Interfaz gráfica donde los usuarios interactúan con la aplicación. Se conecta con la infraestructura en la nube para enviar y recibir información a través de una API, garantizando una experiencia fluida y optimizada." style="text;html=1;align=left;verticalAlign=top;spacingTop=-4;fontSize=14;labelBackgroundColor=none;whiteSpace=wrap;" parent="1" vertex="1">
          <mxGeometry x="1360" y="12" width="449" height="118" as="geometry" />
        </mxCell>
        <mxCell id="k1J5Uft5zTIaOylSxwT3-12" value="Maneja la distribución de tráfico y contenido mediante &lt;strong data-end=&quot;344&quot; data-start=&quot;325&quot;&gt;Amazon Route 53&lt;/strong&gt; para la gestión de dominios y resolución de nombres, &lt;strong data-end=&quot;420&quot; data-start=&quot;398&quot;&gt;Amazon S3 Frontend&lt;/strong&gt; para el almacenamiento de archivos estáticos y &lt;strong data-end=&quot;486&quot; data-start=&quot;468&quot;&gt;AWS CloudFront&lt;/strong&gt; para la entrega global de contenido, mejorando la velocidad de acceso y reduciendo latencias. &lt;strong data-end=&quot;592&quot; data-start=&quot;581&quot;&gt;AWS ELB&lt;/strong&gt; (Elastic Load Balancer) se encarga de distribuir las solicitudes entrantes para garantizar escalabilidad y alta disponibilidad." style="text;html=1;align=left;verticalAlign=top;spacingTop=-4;fontSize=14;labelBackgroundColor=none;whiteSpace=wrap;" parent="1" vertex="1">
          <mxGeometry x="1358.5" y="95" width="450" height="115" as="geometry" />
        </mxCell>
        <mxCell id="k1J5Uft5zTIaOylSxwT3-13" value="El sistema implementa &lt;strong data-end=&quot;793&quot; data-start=&quot;766&quot;&gt;AWS Certificate Manager&lt;/strong&gt; para la gestión de certificados SSL/TLS, asegurando una comunicación cifrada. &lt;strong data-end=&quot;883&quot; data-start=&quot;872&quot;&gt;AWS WAF&lt;/strong&gt; protege contra amenazas como ataques DDoS y solicitudes maliciosas, mientras que &lt;strong data-end=&quot;980&quot; data-start=&quot;965&quot;&gt;AWS Cognito&lt;/strong&gt; gestiona la autenticación y autorización de los usuarios, permitiendo un acceso controlado a la aplicación." style="text;html=1;align=left;verticalAlign=top;spacingTop=-4;fontSize=14;labelBackgroundColor=none;whiteSpace=wrap;" parent="1" vertex="1">
          <mxGeometry x="1358.5" y="236.12" width="450" height="117" as="geometry" />
        </mxCell>
        <mxCell id="k1J5Uft5zTIaOylSxwT3-14" value="Punto de entrada para todas las solicitudes provenientes del frontend, gestionando el acceso a los servicios backend. Se encarga de la autenticación, enrutamiento y seguridad de las peticiones, facilitando la integración con &lt;strong data-end=&quot;1353&quot; data-start=&quot;1339&quot;&gt;AWS Lambda&lt;/strong&gt; para la ejecución de lógica de negocio sin necesidad de servidores." style="text;html=1;align=left;verticalAlign=top;spacingTop=-4;fontSize=14;labelBackgroundColor=none;whiteSpace=wrap;" parent="1" vertex="1">
          <mxGeometry x="1361" y="359" width="450" height="121" as="geometry" />
        </mxCell>
        <mxCell id="k1J5Uft5zTIaOylSxwT3-15" value="Procesa y gestiona el envío de notificaciones en la aplicación utilizando &lt;strong data-end=&quot;1558&quot; data-start=&quot;1544&quot;&gt;AWS Lambda&lt;/strong&gt;. Permite generar alertas automáticas basadas en eventos del sistema y enviar mensajes a los usuarios de manera eficiente." style="text;html=1;align=left;verticalAlign=top;spacingTop=-4;fontSize=14;labelBackgroundColor=none;whiteSpace=wrap;" parent="1" vertex="1">
          <mxGeometry x="1362" y="470" width="449" height="114" as="geometry" />
        </mxCell>
        <mxCell id="k1J5Uft5zTIaOylSxwT3-16" value="Encargado de administrar la información de propiedades dentro del sistema. Mediante &lt;strong data-end=&quot;1825&quot; data-start=&quot;1811&quot;&gt;AWS Lambda&lt;/strong&gt;, se procesan operaciones como la creación, actualización y consulta de datos." style="text;html=1;align=left;verticalAlign=top;spacingTop=-4;fontSize=14;labelBackgroundColor=none;whiteSpace=wrap;" parent="1" vertex="1">
          <mxGeometry x="1358.5" y="562" width="450" height="118" as="geometry" />
        </mxCell>
        <mxCell id="k1J5Uft5zTIaOylSxwT3-17" value="Genera informes a partir de los datos almacenados en el sistema utilizando &lt;strong data-end=&quot;2039&quot; data-start=&quot;2025&quot;&gt;AWS Lambda&lt;/strong&gt;. Los reportes son generados y almacenados en &lt;strong data-end=&quot;2106&quot; data-start=&quot;2085&quot;&gt;Amazon S3 Reports&lt;/strong&gt;, facilitando su acceso posterior." style="text;html=1;align=left;verticalAlign=top;spacingTop=-4;fontSize=14;labelBackgroundColor=none;whiteSpace=wrap;" parent="1" vertex="1">
          <mxGeometry x="1360" y="640" width="449" height="113" as="geometry" />
        </mxCell>
        <mxCell id="k1J5Uft5zTIaOylSxwT3-18" value="Administra la información y autenticación de los usuarios de la aplicación con &lt;strong data-end=&quot;2277&quot; data-start=&quot;2263&quot;&gt;AWS Lambda&lt;/strong&gt;. Maneja la creación, actualización y validación de perfiles, asegurando un control adecuado de acceso." style="text;html=1;align=left;verticalAlign=top;spacingTop=-4;fontSize=14;labelBackgroundColor=none;whiteSpace=wrap;" parent="1" vertex="1">
          <mxGeometry x="1362" y="710" width="449" height="124" as="geometry" />
        </mxCell>
        <mxCell id="k1J5Uft5zTIaOylSxwT3-19" value="Procesa y administra las transacciones dentro del sistema mediante &lt;strong data-end=&quot;2510&quot; data-start=&quot;2496&quot;&gt;AWS Lambda&lt;/strong&gt;, asegurando que las operaciones se ejecuten de forma eficiente y confiable." style="text;html=1;align=left;verticalAlign=top;spacingTop=-4;fontSize=14;labelBackgroundColor=none;whiteSpace=wrap;" parent="1" vertex="1">
          <mxGeometry x="1361" y="790.5" width="449" height="115" as="geometry" />
        </mxCell>
        <mxCell id="k1J5Uft5zTIaOylSxwT3-22" value="10" style="rounded=1;whiteSpace=wrap;html=1;fillColor=#007CBD;strokeColor=none;fontColor=#FFFFFF;fontStyle=1;fontSize=22;labelBackgroundColor=none;" parent="1" vertex="1">
          <mxGeometry x="1307" y="867.5" width="40" height="38" as="geometry" />
        </mxCell>
        <mxCell id="k1J5Uft5zTIaOylSxwT3-23" value="Los datos del sistema se almacenan en &lt;strong data-end=&quot;2665&quot; data-start=&quot;2651&quot;&gt;Amazon RDS&lt;/strong&gt;, una base de datos relacional que proporciona disponibilidad y respaldo automático. Además, &lt;strong data-end=&quot;2782&quot; data-start=&quot;2758&quot;&gt;Amazon Elasticsearch&lt;/strong&gt; permite realizar búsquedas optimizadas y análisis de datos en tiempo real." style="text;html=1;align=left;verticalAlign=top;spacingTop=-4;fontSize=14;labelBackgroundColor=none;whiteSpace=wrap;" parent="1" vertex="1">
          <mxGeometry x="1362" y="867.5" width="449" height="115" as="geometry" />
        </mxCell>
        <mxCell id="k1J5Uft5zTIaOylSxwT3-24" value="11" style="rounded=1;whiteSpace=wrap;html=1;fillColor=#007CBD;strokeColor=none;fontColor=#FFFFFF;fontStyle=1;fontSize=22;labelBackgroundColor=none;" parent="1" vertex="1">
          <mxGeometry x="1308.5" y="960" width="40" height="38" as="geometry" />
        </mxCell>
        <mxCell id="k1J5Uft5zTIaOylSxwT3-25" value="Los informes generados por el backend se almacenan en &lt;strong data-end=&quot;2976&quot; data-start=&quot;2955&quot;&gt;Amazon S3 Reports&lt;/strong&gt;, proporcionando una solución escalable y segura para la gestión de documentos." style="text;html=1;align=left;verticalAlign=top;spacingTop=-4;fontSize=14;labelBackgroundColor=none;whiteSpace=wrap;" parent="1" vertex="1">
          <mxGeometry x="1361" y="960" width="449" height="115" as="geometry" />
        </mxCell>
        <mxCell id="JzPm0LA4FIclO9d2p8x0-4" value="" style="shape=image;html=1;verticalAlign=top;verticalLabelPosition=bottom;labelBackgroundColor=#ffffff;imageAspect=0;aspect=fixed;image=https://cdn1.iconfinder.com/data/icons/communication-icons-10/750/Untitled-1-06-128.png;movable=1;resizable=1;rotatable=1;deletable=1;editable=1;locked=0;connectable=1;" parent="1" vertex="1">
          <mxGeometry x="25.999999999999986" y="403.12" width="78" height="78" as="geometry" />
        </mxCell>
        <mxCell id="JzPm0LA4FIclO9d2p8x0-5" value="" style="verticalLabelPosition=bottom;aspect=fixed;html=1;shape=mxgraph.salesforce.web;movable=1;resizable=1;rotatable=1;deletable=1;editable=1;locked=0;connectable=1;" parent="1" vertex="1">
          <mxGeometry x="41.32999999999997" y="353.12" width="47.34" height="37.4" as="geometry" />
        </mxCell>
        <mxCell id="JzPm0LA4FIclO9d2p8x0-6" value="" style="rounded=1;arcSize=10;dashed=1;strokeColor=#000000;fillColor=none;gradientColor=none;dashPattern=8 4;strokeWidth=2;movable=1;resizable=1;rotatable=1;deletable=1;editable=1;locked=0;connectable=1;" parent="1" vertex="1">
          <mxGeometry x="19.999999999999996" y="313.62" width="90" height="180" as="geometry" />
        </mxCell>
        <mxCell id="JzPm0LA4FIclO9d2p8x0-7" value="FrontEnd" style="text;html=1;align=center;verticalAlign=middle;whiteSpace=wrap;rounded=0;movable=1;resizable=1;rotatable=1;deletable=1;editable=1;locked=0;connectable=1;" parent="1" vertex="1">
          <mxGeometry x="35" y="313.61" width="60" height="30" as="geometry" />
        </mxCell>
        <mxCell id="fuwTm4U0xm-plLAGryb_-3" style="edgeStyle=orthogonalEdgeStyle;rounded=0;orthogonalLoop=1;jettySize=auto;html=1;exitX=1;exitY=0.5;exitDx=0;exitDy=0;exitPerimeter=0;" parent="1" source="JzPm0LA4FIclO9d2p8x0-21" target="JzPm0LA4FIclO9d2p8x0-42" edge="1">
          <mxGeometry relative="1" as="geometry" />
        </mxCell>
        <mxCell id="JzPm0LA4FIclO9d2p8x0-21" value="&lt;font style=&quot;font-size: 8px;&quot;&gt;AWS CLOUDFRONT&lt;/font&gt;" style="outlineConnect=0;dashed=0;verticalLabelPosition=bottom;verticalAlign=top;align=center;html=1;shape=mxgraph.aws3.cloudfront;fillColor=#F58536;gradientColor=none;" parent="1" vertex="1">
          <mxGeometry x="429.25" y="362.12" width="66.5" height="83" as="geometry" />
        </mxCell>
        <mxCell id="fuwTm4U0xm-plLAGryb_-1" style="edgeStyle=orthogonalEdgeStyle;rounded=0;orthogonalLoop=1;jettySize=auto;html=1;exitX=1;exitY=0.5;exitDx=0;exitDy=0;exitPerimeter=0;" parent="1" source="JzPm0LA4FIclO9d2p8x0-22" target="JzPm0LA4FIclO9d2p8x0-21" edge="1">
          <mxGeometry relative="1" as="geometry" />
        </mxCell>
        <mxCell id="JzPm0LA4FIclO9d2p8x0-22" value="S3&lt;br&gt;FRONTEND&lt;div&gt;&lt;br&gt;&lt;/div&gt;" style="sketch=0;points=[[0,0,0],[0.25,0,0],[0.5,0,0],[0.75,0,0],[1,0,0],[0,1,0],[0.25,1,0],[0.5,1,0],[0.75,1,0],[1,1,0],[0,0.25,0],[0,0.5,0],[0,0.75,0],[1,0.25,0],[1,0.5,0],[1,0.75,0]];outlineConnect=0;fontColor=#232F3E;fillColor=#7AA116;strokeColor=#ffffff;dashed=0;verticalLabelPosition=bottom;verticalAlign=top;align=center;html=1;fontSize=12;fontStyle=0;aspect=fixed;shape=mxgraph.aws4.resourceIcon;resIcon=mxgraph.aws4.s3;" parent="1" vertex="1">
          <mxGeometry x="312.25" y="374.24999999999994" width="58.75" height="58.75" as="geometry" />
        </mxCell>
        <mxCell id="JzPm0LA4FIclO9d2p8x0-23" value="API GATEWAY" style="sketch=0;points=[[0,0,0],[0.25,0,0],[0.5,0,0],[0.75,0,0],[1,0,0],[0,1,0],[0.25,1,0],[0.5,1,0],[0.75,1,0],[1,1,0],[0,0.25,0],[0,0.5,0],[0,0.75,0],[1,0.25,0],[1,0.5,0],[1,0.75,0]];outlineConnect=0;fontColor=#232F3E;fillColor=#E7157B;strokeColor=#ffffff;dashed=0;verticalLabelPosition=bottom;verticalAlign=top;align=center;html=1;fontSize=12;fontStyle=0;aspect=fixed;shape=mxgraph.aws4.resourceIcon;resIcon=mxgraph.aws4.api_gateway;" parent="1" vertex="1">
          <mxGeometry x="701" y="376.6" width="54.03" height="54.03" as="geometry" />
        </mxCell>
        <mxCell id="JzPm0LA4FIclO9d2p8x0-28" value="ROUTE 53&lt;div&gt;&lt;br&gt;&lt;/div&gt;" style="sketch=0;points=[[0,0,0],[0.25,0,0],[0.5,0,0],[0.75,0,0],[1,0,0],[0,1,0],[0.25,1,0],[0.5,1,0],[0.75,1,0],[1,1,0],[0,0.25,0],[0,0.5,0],[0,0.75,0],[1,0.25,0],[1,0.5,0],[1,0.75,0]];outlineConnect=0;fontColor=#232F3E;fillColor=#8C4FFF;strokeColor=#ffffff;dashed=0;verticalLabelPosition=bottom;verticalAlign=top;align=center;html=1;fontSize=12;fontStyle=0;aspect=fixed;shape=mxgraph.aws4.resourceIcon;resIcon=mxgraph.aws4.route_53;" parent="1" vertex="1">
          <mxGeometry x="198" y="370.12" width="67" height="67" as="geometry" />
        </mxCell>
        <mxCell id="JzPm0LA4FIclO9d2p8x0-29" style="edgeStyle=orthogonalEdgeStyle;rounded=0;orthogonalLoop=1;jettySize=auto;html=1;exitX=0.5;exitY=1;exitDx=0;exitDy=0;exitPerimeter=0;" parent="1" source="JzPm0LA4FIclO9d2p8x0-30" target="JzPm0LA4FIclO9d2p8x0-28" edge="1">
          <mxGeometry relative="1" as="geometry">
            <mxPoint x="230.75" y="313.12" as="sourcePoint" />
          </mxGeometry>
        </mxCell>
        <mxCell id="JzPm0LA4FIclO9d2p8x0-34" style="edgeStyle=orthogonalEdgeStyle;rounded=0;orthogonalLoop=1;jettySize=auto;html=1;exitX=1;exitY=0.5;exitDx=0;exitDy=0;entryX=0;entryY=0.5;entryDx=0;entryDy=0;entryPerimeter=0;" parent="1" source="JzPm0LA4FIclO9d2p8x0-6" target="JzPm0LA4FIclO9d2p8x0-28" edge="1">
          <mxGeometry relative="1" as="geometry" />
        </mxCell>
        <mxCell id="JzPm0LA4FIclO9d2p8x0-41" style="edgeStyle=orthogonalEdgeStyle;rounded=0;orthogonalLoop=1;jettySize=auto;html=1;exitX=0.5;exitY=1;exitDx=0;exitDy=0;exitPerimeter=0;entryX=0.5;entryY=0;entryDx=0;entryDy=0;entryPerimeter=0;" parent="1" source="JzPm0LA4FIclO9d2p8x0-25" target="JzPm0LA4FIclO9d2p8x0-23" edge="1">
          <mxGeometry relative="1" as="geometry" />
        </mxCell>
        <mxCell id="JzPm0LA4FIclO9d2p8x0-42" value="AWS&lt;br&gt;ELB" style="sketch=0;points=[[0,0,0],[0.25,0,0],[0.5,0,0],[0.75,0,0],[1,0,0],[0,1,0],[0.25,1,0],[0.5,1,0],[0.75,1,0],[1,1,0],[0,0.25,0],[0,0.5,0],[0,0.75,0],[1,0.25,0],[1,0.5,0],[1,0.75,0]];outlineConnect=0;fontColor=#232F3E;fillColor=#8C4FFF;strokeColor=#ffffff;dashed=0;verticalLabelPosition=bottom;verticalAlign=top;align=center;html=1;fontSize=12;fontStyle=0;aspect=fixed;shape=mxgraph.aws4.resourceIcon;resIcon=mxgraph.aws4.elastic_load_balancing;" parent="1" vertex="1">
          <mxGeometry x="561" y="369.62" width="68" height="68" as="geometry" />
        </mxCell>
        <mxCell id="JzPm0LA4FIclO9d2p8x0-44" style="edgeStyle=orthogonalEdgeStyle;rounded=0;orthogonalLoop=1;jettySize=auto;html=1;exitX=1;exitY=0.5;exitDx=0;exitDy=0;exitPerimeter=0;entryX=0;entryY=0.5;entryDx=0;entryDy=0;entryPerimeter=0;" parent="1" source="JzPm0LA4FIclO9d2p8x0-42" target="JzPm0LA4FIclO9d2p8x0-23" edge="1">
          <mxGeometry relative="1" as="geometry" />
        </mxCell>
        <mxCell id="JzPm0LA4FIclO9d2p8x0-46" value="AMAZON&lt;br&gt;RDS" style="sketch=0;points=[[0,0,0],[0.25,0,0],[0.5,0,0],[0.75,0,0],[1,0,0],[0,1,0],[0.25,1,0],[0.5,1,0],[0.75,1,0],[1,1,0],[0,0.25,0],[0,0.5,0],[0,0.75,0],[1,0.25,0],[1,0.5,0],[1,0.75,0]];outlineConnect=0;fontColor=#232F3E;fillColor=#C925D1;strokeColor=#ffffff;dashed=0;verticalLabelPosition=bottom;verticalAlign=top;align=center;html=1;fontSize=12;fontStyle=0;aspect=fixed;shape=mxgraph.aws4.resourceIcon;resIcon=mxgraph.aws4.rds;" parent="1" vertex="1">
          <mxGeometry x="1120" y="379.62" width="48" height="48" as="geometry" />
        </mxCell>
        <mxCell id="qzDV-_mYsomiyrsQQivL-24" style="edgeStyle=orthogonalEdgeStyle;rounded=0;orthogonalLoop=1;jettySize=auto;html=1;exitX=0.5;exitY=0;exitDx=0;exitDy=0;exitPerimeter=0;" edge="1" parent="1" source="JzPm0LA4FIclO9d2p8x0-47" target="JzPm0LA4FIclO9d2p8x0-46">
          <mxGeometry relative="1" as="geometry" />
        </mxCell>
        <mxCell id="JzPm0LA4FIclO9d2p8x0-47" value="AMAZON&lt;br&gt;ELASTICACHE" style="sketch=0;points=[[0,0,0],[0.25,0,0],[0.5,0,0],[0.75,0,0],[1,0,0],[0,1,0],[0.25,1,0],[0.5,1,0],[0.75,1,0],[1,1,0],[0,0.25,0],[0,0.5,0],[0,0.75,0],[1,0.25,0],[1,0.5,0],[1,0.75,0]];outlineConnect=0;fontColor=#232F3E;fillColor=#C925D1;strokeColor=#ffffff;dashed=0;verticalLabelPosition=bottom;verticalAlign=top;align=center;html=1;fontSize=12;fontStyle=0;aspect=fixed;shape=mxgraph.aws4.resourceIcon;resIcon=mxgraph.aws4.elasticache;" parent="1" vertex="1">
          <mxGeometry x="1120" y="568.99" width="46.25" height="46.25" as="geometry" />
        </mxCell>
        <mxCell id="JzPm0LA4FIclO9d2p8x0-55" style="edgeStyle=orthogonalEdgeStyle;rounded=0;orthogonalLoop=1;jettySize=auto;html=1;exitX=0.5;exitY=1;exitDx=0;exitDy=0;exitPerimeter=0;entryX=0.5;entryY=0;entryDx=0;entryDy=0;entryPerimeter=0;" parent="1" source="JzPm0LA4FIclO9d2p8x0-24" target="JzPm0LA4FIclO9d2p8x0-22" edge="1">
          <mxGeometry relative="1" as="geometry">
            <Array as="points">
              <mxPoint x="606" y="330" />
              <mxPoint x="342" y="330" />
            </Array>
          </mxGeometry>
        </mxCell>
        <mxCell id="oLP4DhsIbuqPjCPzQVOx-1" value="AWS LAMBDA&lt;br&gt;GESTIÓN DE USUARIOS&lt;div&gt;&lt;br&gt;&lt;/div&gt;" style="sketch=0;points=[[0,0,0],[0.25,0,0],[0.5,0,0],[0.75,0,0],[1,0,0],[0,1,0],[0.25,1,0],[0.5,1,0],[0.75,1,0],[1,1,0],[0,0.25,0],[0,0.5,0],[0,0.75,0],[1,0.25,0],[1,0.5,0],[1,0.75,0]];outlineConnect=0;fontColor=#232F3E;fillColor=#ED7100;strokeColor=#ffffff;dashed=0;verticalLabelPosition=bottom;verticalAlign=top;align=center;html=1;fontSize=12;fontStyle=0;aspect=fixed;shape=mxgraph.aws4.resourceIcon;resIcon=mxgraph.aws4.lambda;" parent="1" vertex="1">
          <mxGeometry x="937" y="481.12" width="46.5" height="46.5" as="geometry" />
        </mxCell>
        <mxCell id="oLP4DhsIbuqPjCPzQVOx-3" value="AWS LAMBDA&lt;br&gt;GESTIÓN DE TRANSACCIONES&lt;div&gt;&lt;br&gt;&lt;/div&gt;" style="sketch=0;points=[[0,0,0],[0.25,0,0],[0.5,0,0],[0.75,0,0],[1,0,0],[0,1,0],[0.25,1,0],[0.5,1,0],[0.75,1,0],[1,1,0],[0,0.25,0],[0,0.5,0],[0,0.75,0],[1,0.25,0],[1,0.5,0],[1,0.75,0]];outlineConnect=0;fontColor=#232F3E;fillColor=#ED7100;strokeColor=#ffffff;dashed=0;verticalLabelPosition=bottom;verticalAlign=top;align=center;html=1;fontSize=12;fontStyle=0;aspect=fixed;shape=mxgraph.aws4.resourceIcon;resIcon=mxgraph.aws4.lambda;" parent="1" vertex="1">
          <mxGeometry x="937" y="569" width="48" height="48" as="geometry" />
        </mxCell>
        <mxCell id="oLP4DhsIbuqPjCPzQVOx-7" value="AWS LAMBDA&lt;br&gt;&lt;div&gt;GENERACIÓN DE REPORTES&lt;/div&gt;" style="sketch=0;points=[[0,0,0],[0.25,0,0],[0.5,0,0],[0.75,0,0],[1,0,0],[0,1,0],[0.25,1,0],[0.5,1,0],[0.75,1,0],[1,1,0],[0,0.25,0],[0,0.5,0],[0,0.75,0],[1,0.25,0],[1,0.5,0],[1,0.75,0]];outlineConnect=0;fontColor=#232F3E;fillColor=#ED7100;strokeColor=#ffffff;dashed=0;verticalLabelPosition=bottom;verticalAlign=top;align=center;html=1;fontSize=12;fontStyle=0;aspect=fixed;shape=mxgraph.aws4.resourceIcon;resIcon=mxgraph.aws4.lambda;" parent="1" vertex="1">
          <mxGeometry x="935.5" y="379.62" width="48" height="48" as="geometry" />
        </mxCell>
        <mxCell id="oLP4DhsIbuqPjCPzQVOx-8" value="AWS LAMBDA&lt;br&gt;&lt;div&gt;NOTIFICACIONES Y ALERTAS&lt;/div&gt;" style="sketch=0;points=[[0,0,0],[0.25,0,0],[0.5,0,0],[0.75,0,0],[1,0,0],[0,1,0],[0.25,1,0],[0.5,1,0],[0.75,1,0],[1,1,0],[0,0.25,0],[0,0.5,0],[0,0.75,0],[1,0.25,0],[1,0.5,0],[1,0.75,0]];outlineConnect=0;fontColor=#232F3E;fillColor=#ED7100;strokeColor=#ffffff;dashed=0;verticalLabelPosition=bottom;verticalAlign=top;align=center;html=1;fontSize=12;fontStyle=0;aspect=fixed;shape=mxgraph.aws4.resourceIcon;resIcon=mxgraph.aws4.lambda;" parent="1" vertex="1">
          <mxGeometry x="931.25" y="180" width="58" height="58" as="geometry" />
        </mxCell>
        <mxCell id="oLP4DhsIbuqPjCPzQVOx-11" style="edgeStyle=orthogonalEdgeStyle;rounded=0;orthogonalLoop=1;jettySize=auto;html=1;exitX=1;exitY=0.5;exitDx=0;exitDy=0;exitPerimeter=0;entryX=0;entryY=0.5;entryDx=0;entryDy=0;entryPerimeter=0;" parent="1" source="JzPm0LA4FIclO9d2p8x0-23" target="oLP4DhsIbuqPjCPzQVOx-7" edge="1">
          <mxGeometry relative="1" as="geometry" />
        </mxCell>
        <mxCell id="oLP4DhsIbuqPjCPzQVOx-13" style="edgeStyle=orthogonalEdgeStyle;rounded=0;orthogonalLoop=1;jettySize=auto;html=1;exitX=1;exitY=0;exitDx=0;exitDy=0;exitPerimeter=0;entryX=0;entryY=0.5;entryDx=0;entryDy=0;entryPerimeter=0;" parent="1" source="JzPm0LA4FIclO9d2p8x0-23" target="oLP4DhsIbuqPjCPzQVOx-8" edge="1">
          <mxGeometry relative="1" as="geometry">
            <Array as="points">
              <mxPoint x="840" y="377" />
              <mxPoint x="840" y="209" />
            </Array>
          </mxGeometry>
        </mxCell>
        <mxCell id="oLP4DhsIbuqPjCPzQVOx-14" style="edgeStyle=orthogonalEdgeStyle;rounded=0;orthogonalLoop=1;jettySize=auto;html=1;exitX=1;exitY=0.25;exitDx=0;exitDy=0;exitPerimeter=0;entryX=0;entryY=0.5;entryDx=0;entryDy=0;entryPerimeter=0;" parent="1" source="JzPm0LA4FIclO9d2p8x0-23" target="oLP4DhsIbuqPjCPzQVOx-4" edge="1">
          <mxGeometry relative="1" as="geometry">
            <Array as="points">
              <mxPoint x="870" y="390" />
              <mxPoint x="870" y="307" />
            </Array>
          </mxGeometry>
        </mxCell>
        <mxCell id="oLP4DhsIbuqPjCPzQVOx-15" style="edgeStyle=orthogonalEdgeStyle;rounded=0;orthogonalLoop=1;jettySize=auto;html=1;exitX=1;exitY=0.75;exitDx=0;exitDy=0;exitPerimeter=0;entryX=0;entryY=0.5;entryDx=0;entryDy=0;entryPerimeter=0;" parent="1" source="JzPm0LA4FIclO9d2p8x0-23" target="oLP4DhsIbuqPjCPzQVOx-1" edge="1">
          <mxGeometry relative="1" as="geometry">
            <Array as="points">
              <mxPoint x="870" y="417" />
              <mxPoint x="870" y="504" />
            </Array>
          </mxGeometry>
        </mxCell>
        <mxCell id="oLP4DhsIbuqPjCPzQVOx-16" style="edgeStyle=orthogonalEdgeStyle;rounded=0;orthogonalLoop=1;jettySize=auto;html=1;exitX=1;exitY=1;exitDx=0;exitDy=0;exitPerimeter=0;entryX=0;entryY=0.5;entryDx=0;entryDy=0;entryPerimeter=0;" parent="1" source="JzPm0LA4FIclO9d2p8x0-23" target="oLP4DhsIbuqPjCPzQVOx-3" edge="1">
          <mxGeometry relative="1" as="geometry">
            <Array as="points">
              <mxPoint x="840" y="431" />
              <mxPoint x="840" y="593" />
            </Array>
          </mxGeometry>
        </mxCell>
        <mxCell id="bGUCQ6j749L-QBy2Nogv-17" style="edgeStyle=orthogonalEdgeStyle;rounded=0;orthogonalLoop=1;jettySize=auto;html=1;exitX=1;exitY=0.5;exitDx=0;exitDy=0;exitPerimeter=0;entryX=0;entryY=0.5;entryDx=0;entryDy=0;entryPerimeter=0;" parent="1" source="oLP4DhsIbuqPjCPzQVOx-1" target="JzPm0LA4FIclO9d2p8x0-46" edge="1">
          <mxGeometry relative="1" as="geometry">
            <Array as="points">
              <mxPoint x="1070" y="504" />
              <mxPoint x="1070" y="404" />
            </Array>
          </mxGeometry>
        </mxCell>
        <mxCell id="bGUCQ6j749L-QBy2Nogv-19" style="edgeStyle=orthogonalEdgeStyle;rounded=0;orthogonalLoop=1;jettySize=auto;html=1;exitX=1;exitY=0.5;exitDx=0;exitDy=0;exitPerimeter=0;entryX=0;entryY=0.5;entryDx=0;entryDy=0;entryPerimeter=0;" parent="1" source="oLP4DhsIbuqPjCPzQVOx-4" target="JzPm0LA4FIclO9d2p8x0-46" edge="1">
          <mxGeometry relative="1" as="geometry">
            <Array as="points">
              <mxPoint x="1070" y="307" />
              <mxPoint x="1070" y="404" />
            </Array>
          </mxGeometry>
        </mxCell>
        <mxCell id="bGUCQ6j749L-QBy2Nogv-20" style="edgeStyle=orthogonalEdgeStyle;rounded=0;orthogonalLoop=1;jettySize=auto;html=1;exitX=1;exitY=0.5;exitDx=0;exitDy=0;exitPerimeter=0;entryX=0;entryY=0.5;entryDx=0;entryDy=0;entryPerimeter=0;" parent="1" source="oLP4DhsIbuqPjCPzQVOx-3" target="JzPm0LA4FIclO9d2p8x0-47" edge="1">
          <mxGeometry relative="1" as="geometry" />
        </mxCell>
        <mxCell id="bGUCQ6j749L-QBy2Nogv-22" style="edgeStyle=orthogonalEdgeStyle;rounded=0;orthogonalLoop=1;jettySize=auto;html=1;exitX=1;exitY=0.5;exitDx=0;exitDy=0;exitPerimeter=0;entryX=0.5;entryY=0;entryDx=0;entryDy=0;entryPerimeter=0;" parent="1" source="oLP4DhsIbuqPjCPzQVOx-8" target="JzPm0LA4FIclO9d2p8x0-46" edge="1">
          <mxGeometry relative="1" as="geometry" />
        </mxCell>
        <mxCell id="fuwTm4U0xm-plLAGryb_-2" style="edgeStyle=orthogonalEdgeStyle;rounded=0;orthogonalLoop=1;jettySize=auto;html=1;exitX=1;exitY=0.5;exitDx=0;exitDy=0;exitPerimeter=0;entryX=0;entryY=0.5;entryDx=0;entryDy=0;entryPerimeter=0;" parent="1" source="JzPm0LA4FIclO9d2p8x0-28" target="JzPm0LA4FIclO9d2p8x0-22" edge="1">
          <mxGeometry relative="1" as="geometry" />
        </mxCell>
        <mxCell id="DIDE_00u7-2ciem5ur7h-6" value="SEGURIDAD" style="text;html=1;align=center;verticalAlign=middle;resizable=0;points=[];autosize=1;strokeColor=none;fillColor=none;" parent="1" vertex="1">
          <mxGeometry x="561" y="188.5" width="90" height="30" as="geometry" />
        </mxCell>
        <mxCell id="DIDE_00u7-2ciem5ur7h-11" value="" style="swimlane;startSize=0;" parent="1" vertex="1">
          <mxGeometry x="180" y="350" width="640" height="130" as="geometry" />
        </mxCell>
        <mxCell id="_54sBhCeqdnGJuMFZjdm-3" value="" style="rounded=1;arcSize=10;dashed=1;strokeColor=#ff0000;fillColor=none;gradientColor=none;dashPattern=8 4;strokeWidth=2;rotation=90;" parent="DIDE_00u7-2ciem5ur7h-11" vertex="1">
          <mxGeometry x="339.23" y="-142.34" width="150.93" height="410.62" as="geometry" />
        </mxCell>
        <mxCell id="qzDV-_mYsomiyrsQQivL-6" value="4" style="rounded=1;whiteSpace=wrap;html=1;fillColor=#007CBD;strokeColor=none;fontColor=#FFFFFF;fontStyle=1;fontSize=22;labelBackgroundColor=none;arcSize=50;" vertex="1" parent="DIDE_00u7-2ciem5ur7h-11">
          <mxGeometry x="480" y="20" width="30" height="28" as="geometry" />
        </mxCell>
        <mxCell id="DIDE_00u7-2ciem5ur7h-15" value="" style="swimlane;startSize=0;" parent="1" vertex="1">
          <mxGeometry x="1090" y="360" width="110" height="310" as="geometry" />
        </mxCell>
        <mxCell id="L26RvyZD8rY6AKCRmw9--3" value="" style="rounded=1;arcSize=10;dashed=1;strokeColor=#ff0000;fillColor=none;gradientColor=none;dashPattern=8 4;strokeWidth=2;" parent="DIDE_00u7-2ciem5ur7h-15" vertex="1">
          <mxGeometry x="7.369999999999891" y="8.5" width="95.25" height="289.88" as="geometry" />
        </mxCell>
        <mxCell id="DIDE_00u7-2ciem5ur7h-16" value="DATABASE" style="text;html=1;align=center;verticalAlign=middle;whiteSpace=wrap;rounded=0;" parent="1" vertex="1">
          <mxGeometry x="1150" y="340" width="60" height="30" as="geometry" />
        </mxCell>
        <mxCell id="DIDE_00u7-2ciem5ur7h-17" value="S3&lt;br&gt;REPORTS" style="sketch=0;points=[[0,0,0],[0.25,0,0],[0.5,0,0],[0.75,0,0],[1,0,0],[0,1,0],[0.25,1,0],[0.5,1,0],[0.75,1,0],[1,1,0],[0,0.25,0],[0,0.5,0],[0,0.75,0],[1,0.25,0],[1,0.5,0],[1,0.75,0]];outlineConnect=0;fontColor=#232F3E;fillColor=#7AA116;strokeColor=#ffffff;dashed=0;verticalLabelPosition=bottom;verticalAlign=top;align=center;html=1;fontSize=12;fontStyle=0;aspect=fixed;shape=mxgraph.aws4.resourceIcon;resIcon=mxgraph.aws4.s3;" parent="1" vertex="1">
          <mxGeometry x="1168" y="244.75" width="57.5" height="57.5" as="geometry" />
        </mxCell>
        <mxCell id="DIDE_00u7-2ciem5ur7h-18" style="edgeStyle=orthogonalEdgeStyle;rounded=0;orthogonalLoop=1;jettySize=auto;html=1;exitX=1;exitY=0.5;exitDx=0;exitDy=0;exitPerimeter=0;entryX=0;entryY=0.5;entryDx=0;entryDy=0;entryPerimeter=0;" parent="1" source="oLP4DhsIbuqPjCPzQVOx-7" target="DIDE_00u7-2ciem5ur7h-17" edge="1">
          <mxGeometry relative="1" as="geometry">
            <Array as="points">
              <mxPoint x="1060" y="404" />
              <mxPoint x="1060" y="274" />
            </Array>
          </mxGeometry>
        </mxCell>
        <mxCell id="DIDE_00u7-2ciem5ur7h-9" value="BACKEND" style="text;html=1;align=center;verticalAlign=middle;whiteSpace=wrap;rounded=0;" parent="1" vertex="1">
          <mxGeometry x="930" y="140" width="60" height="30" as="geometry" />
        </mxCell>
        <mxCell id="qzDV-_mYsomiyrsQQivL-3" value="1" style="rounded=1;whiteSpace=wrap;html=1;fillColor=#007CBD;strokeColor=none;fontColor=#FFFFFF;fontStyle=1;fontSize=22;labelBackgroundColor=none;" vertex="1" parent="1">
          <mxGeometry x="14" y="264.25" width="40" height="38" as="geometry" />
        </mxCell>
        <mxCell id="qzDV-_mYsomiyrsQQivL-5" value="3" style="rounded=1;whiteSpace=wrap;html=1;fillColor=#007CBD;strokeColor=none;fontColor=#FFFFFF;fontStyle=1;fontSize=22;labelBackgroundColor=none;" vertex="1" parent="1">
          <mxGeometry x="440" y="170" width="40" height="38" as="geometry" />
        </mxCell>
        <mxCell id="qzDV-_mYsomiyrsQQivL-12" value="10" style="rounded=1;whiteSpace=wrap;html=1;fillColor=#007CBD;strokeColor=none;fontColor=#FFFFFF;fontStyle=1;fontSize=22;labelBackgroundColor=none;" vertex="1" parent="1">
          <mxGeometry x="1110" y="327.62" width="22.5" height="25.5" as="geometry" />
        </mxCell>
        <mxCell id="qzDV-_mYsomiyrsQQivL-13" value="11" style="rounded=1;whiteSpace=wrap;html=1;fillColor=#007CBD;strokeColor=none;fontColor=#FFFFFF;fontStyle=1;fontSize=22;labelBackgroundColor=none;" vertex="1" parent="1">
          <mxGeometry x="1160" y="208" width="31" height="25.5" as="geometry" />
        </mxCell>
      </root>
    </mxGraphModel>
  </diagram>
</mxfile>
